<svg width="22" height="22" viewBox="0 0 22 22" fill="none" xmlns="http://www.w3.org/2000/svg">
<path d="M19.9884 9.20487H19.25V9.16683H11V12.8335H16.1806C15.4248 14.968 13.3939 16.5002 11 16.5002C7.96267 16.5002 5.50004 14.0375 5.50004 11.0002C5.50004 7.96279 7.96267 5.50016 11 5.50016C12.4021 5.50016 13.6776 6.02908 14.6488 6.89304L17.2416 4.30025C15.6045 2.77445 13.4145 1.8335 11 1.8335C5.93775 1.8335 1.83337 5.93787 1.83337 11.0002C1.83337 16.0625 5.93775 20.1668 11 20.1668C16.0623 20.1668 20.1667 16.0625 20.1667 11.0002C20.1667 10.3855 20.1035 9.78558 19.9884 9.20487Z" fill="#FFC107"/>
<path d="M2.89026 6.73354L5.90197 8.94225C6.71688 6.92466 8.69047 5.50016 11 5.50016C12.4021 5.50016 13.6776 6.02908 14.6488 6.89304L17.2416 4.30025C15.6044 2.77445 13.4145 1.8335 11 1.8335C7.47909 1.8335 4.42568 3.82129 2.89026 6.73354Z" fill="#FF3D00"/>
<path d="M11 20.1665C13.3677 20.1665 15.5191 19.2604 17.1458 17.7868L14.3087 15.3861C13.3574 16.1095 12.1951 16.5008 11 16.4998C8.61573 16.4998 6.59127 14.9795 5.8286 12.8579L2.83936 15.161C4.35644 18.1297 7.43735 20.1665 11 20.1665Z" fill="#4CAF50"/>
<path d="M19.9884 9.20455H19.25V9.1665H11V12.8332H16.1805C15.819 13.849 15.1678 14.7367 14.3073 15.3865L14.3087 15.3856L17.1458 17.7864C16.945 17.9688 20.1667 15.5832 20.1667 10.9998C20.1667 10.3852 20.1034 9.78525 19.9884 9.20455Z" fill="#1976D2"/>
</svg>
